<svg width="815" height="237" viewBox="0 0 815 237" fill="none" xmlns="http://www.w3.org/2000/svg">
<g id="Full-Width">
<g id="Bracket">
<path id="Vector" d="M753.025 8L808.025 119.5L753.025 231" stroke="black" stroke-width="12" stroke-linecap="round" stroke-linejoin="round"/>
</g>
<g id="CODING">
<mask id="path-2-outside-1_12_422" maskUnits="userSpaceOnUse" x="243" y="142.654" width="481" height="89" fill="black">
<rect fill="white" x="243" y="142.654" width="481" height="89"/>
<path d="M272.672 230.44C262.901 230.44 255.669 228.115 250.976 223.464C246.325 218.771 244 211.539 244 201.768V172.328C244 162.472 246.325 155.219 250.976 150.568C255.627 145.875 262.816 143.571 272.544 143.656H288.032C296.053 143.656 302.176 145.32 306.4 148.648C310.624 151.933 313.077 157.139 313.76 164.264C314.016 166.056 313.675 167.421 312.736 168.36C311.797 169.299 310.432 169.768 308.64 169.768C305.397 169.768 303.52 167.976 303.008 164.392C302.581 160.467 301.216 157.821 298.912 156.456C296.651 155.091 293.024 154.408 288.032 154.408H272.544C268.021 154.365 264.459 154.877 261.856 155.944C259.296 157.011 257.461 158.867 256.352 161.512C255.285 164.115 254.752 167.72 254.752 172.328V201.768C254.752 206.333 255.285 209.917 256.352 212.52C257.461 215.123 259.317 216.979 261.92 218.088C264.523 219.155 268.107 219.688 272.672 219.688H288.032C293.024 219.688 296.651 219.005 298.912 217.64C301.216 216.232 302.581 213.587 303.008 209.704C303.52 206.12 305.397 204.328 308.64 204.328C310.432 204.328 311.797 204.797 312.736 205.736C313.675 206.675 314.016 208.04 313.76 209.832C313.077 217 310.624 222.227 306.4 225.512C302.176 228.797 296.053 230.44 288.032 230.44H272.672Z"/>
<path d="M361.797 230.44C352.026 230.44 344.794 228.115 340.101 223.464C335.45 218.771 333.125 211.539 333.125 201.768V172.2C333.125 162.344 335.472 155.112 340.165 150.504C344.858 145.853 352.069 143.571 361.797 143.656H377.157C386.97 143.656 394.202 145.981 398.853 150.632C403.504 155.283 405.829 162.515 405.829 172.328V201.768C405.829 211.539 403.504 218.771 398.853 223.464C394.202 228.115 386.97 230.44 377.157 230.44H361.797ZM361.797 219.688H377.157C381.722 219.688 385.306 219.155 387.909 218.088C390.512 216.979 392.346 215.123 393.413 212.52C394.522 209.917 395.077 206.333 395.077 201.768V172.328C395.077 167.805 394.522 164.243 393.413 161.64C392.346 159.037 390.512 157.181 387.909 156.072C385.306 154.963 381.722 154.408 377.157 154.408H361.797C357.274 154.365 353.712 154.877 351.109 155.944C348.506 157.011 346.65 158.845 345.541 161.448C344.432 164.051 343.877 167.635 343.877 172.2V201.768C343.877 206.333 344.41 209.917 345.477 212.52C346.586 215.123 348.442 216.979 351.045 218.088C353.648 219.155 357.232 219.688 361.797 219.688Z"/>
<path d="M434.698 230.44C431.114 230.44 429.322 228.648 429.322 225.064V149.032C429.322 145.448 431.114 143.656 434.698 143.656H465.546C476.682 143.656 484.874 146.301 490.122 151.592C495.413 156.84 498.058 165.032 498.058 176.168V197.928C498.058 209.064 495.434 217.277 490.186 222.568C484.981 227.816 476.767 230.44 465.546 230.44H434.698ZM440.074 219.688H465.546C471.007 219.688 475.317 219.027 478.474 217.704C481.674 216.339 483.935 214.077 485.258 210.92C486.623 207.72 487.306 203.389 487.306 197.928V176.168C487.306 170.749 486.623 166.461 485.258 163.304C483.935 160.104 481.674 157.821 478.474 156.456C475.317 155.091 471.007 154.408 465.546 154.408H440.074V219.688Z"/>
<path d="M526.948 230.44C525.113 230.44 523.748 230.013 522.852 229.16C521.999 228.264 521.572 226.899 521.572 225.064V149.16C521.572 147.283 521.999 145.917 522.852 145.064C523.748 144.211 525.113 143.784 526.948 143.784C528.825 143.784 530.191 144.211 531.044 145.064C531.897 145.917 532.324 147.283 532.324 149.16V225.064C532.324 226.899 531.897 228.264 531.044 229.16C530.191 230.013 528.825 230.44 526.948 230.44Z"/>
<path d="M564.323 230.44C560.739 230.44 558.947 228.648 558.947 225.064V149.032C558.947 145.448 560.739 143.656 564.323 143.656C566.158 143.656 567.95 144.723 569.699 146.856L621.155 213.16H618.467V149.032C618.467 145.448 620.259 143.656 623.843 143.656C627.427 143.656 629.219 145.448 629.219 149.032V225.064C629.219 228.648 627.427 230.44 623.843 230.44C621.923 230.44 620.131 229.373 618.467 227.24L567.011 160.936H569.699V225.064C569.699 228.648 567.907 230.44 564.323 230.44Z"/>
<path d="M681.422 230.44C671.651 230.44 664.419 228.115 659.726 223.464C655.075 218.771 652.75 211.539 652.75 201.768V172.328C652.75 162.472 655.075 155.219 659.726 150.568C664.377 145.875 671.566 143.571 681.294 143.656H696.782C704.803 143.656 710.926 145.32 715.15 148.648C719.374 151.933 721.827 157.139 722.51 164.264C722.766 166.056 722.425 167.421 721.486 168.36C720.547 169.299 719.182 169.768 717.39 169.768C714.147 169.768 712.27 167.976 711.758 164.392C711.331 160.467 709.966 157.821 707.662 156.456C705.401 155.091 701.774 154.408 696.782 154.408H681.294C676.771 154.365 673.209 154.877 670.606 155.944C668.046 157.011 666.211 158.867 665.102 161.512C664.035 164.115 663.502 167.72 663.502 172.328V201.768C663.502 206.333 664.035 209.917 665.102 212.52C666.211 215.123 668.067 216.979 670.67 218.088C673.273 219.155 676.857 219.688 681.422 219.688H696.782C700.75 219.688 703.843 219.261 706.062 218.408C708.323 217.512 709.902 215.955 710.798 213.736C711.694 211.517 712.142 208.381 712.142 204.328V198.312L702.158 198.184C698.574 198.184 696.782 196.392 696.782 192.808C696.782 189.224 698.574 187.432 702.158 187.432L717.518 187.56C721.102 187.56 722.894 189.352 722.894 192.936V204.328C722.894 213.416 720.782 220.051 716.558 224.232C712.334 228.371 705.742 230.44 696.782 230.44H681.422Z"/>
</mask>
<path d="M272.672 230.44C262.901 230.44 255.669 228.115 250.976 223.464C246.325 218.771 244 211.539 244 201.768V172.328C244 162.472 246.325 155.219 250.976 150.568C255.627 145.875 262.816 143.571 272.544 143.656H288.032C296.053 143.656 302.176 145.32 306.4 148.648C310.624 151.933 313.077 157.139 313.76 164.264C314.016 166.056 313.675 167.421 312.736 168.36C311.797 169.299 310.432 169.768 308.64 169.768C305.397 169.768 303.52 167.976 303.008 164.392C302.581 160.467 301.216 157.821 298.912 156.456C296.651 155.091 293.024 154.408 288.032 154.408H272.544C268.021 154.365 264.459 154.877 261.856 155.944C259.296 157.011 257.461 158.867 256.352 161.512C255.285 164.115 254.752 167.72 254.752 172.328V201.768C254.752 206.333 255.285 209.917 256.352 212.52C257.461 215.123 259.317 216.979 261.92 218.088C264.523 219.155 268.107 219.688 272.672 219.688H288.032C293.024 219.688 296.651 219.005 298.912 217.64C301.216 216.232 302.581 213.587 303.008 209.704C303.52 206.12 305.397 204.328 308.64 204.328C310.432 204.328 311.797 204.797 312.736 205.736C313.675 206.675 314.016 208.04 313.76 209.832C313.077 217 310.624 222.227 306.4 225.512C302.176 228.797 296.053 230.44 288.032 230.44H272.672Z" fill="#7A0019"/>
<path d="M361.797 230.44C352.026 230.44 344.794 228.115 340.101 223.464C335.45 218.771 333.125 211.539 333.125 201.768V172.2C333.125 162.344 335.472 155.112 340.165 150.504C344.858 145.853 352.069 143.571 361.797 143.656H377.157C386.97 143.656 394.202 145.981 398.853 150.632C403.504 155.283 405.829 162.515 405.829 172.328V201.768C405.829 211.539 403.504 218.771 398.853 223.464C394.202 228.115 386.97 230.44 377.157 230.44H361.797ZM361.797 219.688H377.157C381.722 219.688 385.306 219.155 387.909 218.088C390.512 216.979 392.346 215.123 393.413 212.52C394.522 209.917 395.077 206.333 395.077 201.768V172.328C395.077 167.805 394.522 164.243 393.413 161.64C392.346 159.037 390.512 157.181 387.909 156.072C385.306 154.963 381.722 154.408 377.157 154.408H361.797C357.274 154.365 353.712 154.877 351.109 155.944C348.506 157.011 346.65 158.845 345.541 161.448C344.432 164.051 343.877 167.635 343.877 172.2V201.768C343.877 206.333 344.41 209.917 345.477 212.52C346.586 215.123 348.442 216.979 351.045 218.088C353.648 219.155 357.232 219.688 361.797 219.688Z" fill="#7A0019"/>
<path d="M434.698 230.44C431.114 230.44 429.322 228.648 429.322 225.064V149.032C429.322 145.448 431.114 143.656 434.698 143.656H465.546C476.682 143.656 484.874 146.301 490.122 151.592C495.413 156.84 498.058 165.032 498.058 176.168V197.928C498.058 209.064 495.434 217.277 490.186 222.568C484.981 227.816 476.767 230.44 465.546 230.44H434.698ZM440.074 219.688H465.546C471.007 219.688 475.317 219.027 478.474 217.704C481.674 216.339 483.935 214.077 485.258 210.92C486.623 207.72 487.306 203.389 487.306 197.928V176.168C487.306 170.749 486.623 166.461 485.258 163.304C483.935 160.104 481.674 157.821 478.474 156.456C475.317 155.091 471.007 154.408 465.546 154.408H440.074V219.688Z" fill="#7A0019"/>
<path d="M526.948 230.44C525.113 230.44 523.748 230.013 522.852 229.16C521.999 228.264 521.572 226.899 521.572 225.064V149.16C521.572 147.283 521.999 145.917 522.852 145.064C523.748 144.211 525.113 143.784 526.948 143.784C528.825 143.784 530.191 144.211 531.044 145.064C531.897 145.917 532.324 147.283 532.324 149.16V225.064C532.324 226.899 531.897 228.264 531.044 229.16C530.191 230.013 528.825 230.44 526.948 230.44Z" fill="#7A0019"/>
<path d="M564.323 230.44C560.739 230.44 558.947 228.648 558.947 225.064V149.032C558.947 145.448 560.739 143.656 564.323 143.656C566.158 143.656 567.95 144.723 569.699 146.856L621.155 213.16H618.467V149.032C618.467 145.448 620.259 143.656 623.843 143.656C627.427 143.656 629.219 145.448 629.219 149.032V225.064C629.219 228.648 627.427 230.44 623.843 230.44C621.923 230.44 620.131 229.373 618.467 227.24L567.011 160.936H569.699V225.064C569.699 228.648 567.907 230.44 564.323 230.44Z" fill="#7A0019"/>
<path d="M681.422 230.44C671.651 230.44 664.419 228.115 659.726 223.464C655.075 218.771 652.75 211.539 652.75 201.768V172.328C652.75 162.472 655.075 155.219 659.726 150.568C664.377 145.875 671.566 143.571 681.294 143.656H696.782C704.803 143.656 710.926 145.32 715.15 148.648C719.374 151.933 721.827 157.139 722.51 164.264C722.766 166.056 722.425 167.421 721.486 168.36C720.547 169.299 719.182 169.768 717.39 169.768C714.147 169.768 712.27 167.976 711.758 164.392C711.331 160.467 709.966 157.821 707.662 156.456C705.401 155.091 701.774 154.408 696.782 154.408H681.294C676.771 154.365 673.209 154.877 670.606 155.944C668.046 157.011 666.211 158.867 665.102 161.512C664.035 164.115 663.502 167.72 663.502 172.328V201.768C663.502 206.333 664.035 209.917 665.102 212.52C666.211 215.123 668.067 216.979 670.67 218.088C673.273 219.155 676.857 219.688 681.422 219.688H696.782C700.75 219.688 703.843 219.261 706.062 218.408C708.323 217.512 709.902 215.955 710.798 213.736C711.694 211.517 712.142 208.381 712.142 204.328V198.312L702.158 198.184C698.574 198.184 696.782 196.392 696.782 192.808C696.782 189.224 698.574 187.432 702.158 187.432L717.518 187.56C721.102 187.56 722.894 189.352 722.894 192.936V204.328C722.894 213.416 720.782 220.051 716.558 224.232C712.334 228.371 705.742 230.44 696.782 230.44H681.422Z" fill="#7A0019"/>
<path d="M272.672 230.44C262.901 230.44 255.669 228.115 250.976 223.464C246.325 218.771 244 211.539 244 201.768V172.328C244 162.472 246.325 155.219 250.976 150.568C255.627 145.875 262.816 143.571 272.544 143.656H288.032C296.053 143.656 302.176 145.32 306.4 148.648C310.624 151.933 313.077 157.139 313.76 164.264C314.016 166.056 313.675 167.421 312.736 168.36C311.797 169.299 310.432 169.768 308.64 169.768C305.397 169.768 303.52 167.976 303.008 164.392C302.581 160.467 301.216 157.821 298.912 156.456C296.651 155.091 293.024 154.408 288.032 154.408H272.544C268.021 154.365 264.459 154.877 261.856 155.944C259.296 157.011 257.461 158.867 256.352 161.512C255.285 164.115 254.752 167.72 254.752 172.328V201.768C254.752 206.333 255.285 209.917 256.352 212.52C257.461 215.123 259.317 216.979 261.92 218.088C264.523 219.155 268.107 219.688 272.672 219.688H288.032C293.024 219.688 296.651 219.005 298.912 217.64C301.216 216.232 302.581 213.587 303.008 209.704C303.52 206.12 305.397 204.328 308.64 204.328C310.432 204.328 311.797 204.797 312.736 205.736C313.675 206.675 314.016 208.04 313.76 209.832C313.077 217 310.624 222.227 306.4 225.512C302.176 228.797 296.053 230.44 288.032 230.44H272.672Z" stroke="#7A0019" stroke-width="2" mask="url(#path-2-outside-1_12_422)"/>
<path d="M361.797 230.44C352.026 230.44 344.794 228.115 340.101 223.464C335.45 218.771 333.125 211.539 333.125 201.768V172.2C333.125 162.344 335.472 155.112 340.165 150.504C344.858 145.853 352.069 143.571 361.797 143.656H377.157C386.97 143.656 394.202 145.981 398.853 150.632C403.504 155.283 405.829 162.515 405.829 172.328V201.768C405.829 211.539 403.504 218.771 398.853 223.464C394.202 228.115 386.97 230.44 377.157 230.44H361.797ZM361.797 219.688H377.157C381.722 219.688 385.306 219.155 387.909 218.088C390.512 216.979 392.346 215.123 393.413 212.52C394.522 209.917 395.077 206.333 395.077 201.768V172.328C395.077 167.805 394.522 164.243 393.413 161.64C392.346 159.037 390.512 157.181 387.909 156.072C385.306 154.963 381.722 154.408 377.157 154.408H361.797C357.274 154.365 353.712 154.877 351.109 155.944C348.506 157.011 346.65 158.845 345.541 161.448C344.432 164.051 343.877 167.635 343.877 172.2V201.768C343.877 206.333 344.41 209.917 345.477 212.52C346.586 215.123 348.442 216.979 351.045 218.088C353.648 219.155 357.232 219.688 361.797 219.688Z" stroke="#7A0019" stroke-width="2" mask="url(#path-2-outside-1_12_422)"/>
<path d="M434.698 230.44C431.114 230.44 429.322 228.648 429.322 225.064V149.032C429.322 145.448 431.114 143.656 434.698 143.656H465.546C476.682 143.656 484.874 146.301 490.122 151.592C495.413 156.84 498.058 165.032 498.058 176.168V197.928C498.058 209.064 495.434 217.277 490.186 222.568C484.981 227.816 476.767 230.44 465.546 230.44H434.698ZM440.074 219.688H465.546C471.007 219.688 475.317 219.027 478.474 217.704C481.674 216.339 483.935 214.077 485.258 210.92C486.623 207.72 487.306 203.389 487.306 197.928V176.168C487.306 170.749 486.623 166.461 485.258 163.304C483.935 160.104 481.674 157.821 478.474 156.456C475.317 155.091 471.007 154.408 465.546 154.408H440.074V219.688Z" stroke="#7A0019" stroke-width="2" mask="url(#path-2-outside-1_12_422)"/>
<path d="M526.948 230.44C525.113 230.44 523.748 230.013 522.852 229.16C521.999 228.264 521.572 226.899 521.572 225.064V149.16C521.572 147.283 521.999 145.917 522.852 145.064C523.748 144.211 525.113 143.784 526.948 143.784C528.825 143.784 530.191 144.211 531.044 145.064C531.897 145.917 532.324 147.283 532.324 149.16V225.064C532.324 226.899 531.897 228.264 531.044 229.16C530.191 230.013 528.825 230.44 526.948 230.44Z" stroke="#7A0019" stroke-width="2" mask="url(#path-2-outside-1_12_422)"/>
<path d="M564.323 230.44C560.739 230.44 558.947 228.648 558.947 225.064V149.032C558.947 145.448 560.739 143.656 564.323 143.656C566.158 143.656 567.95 144.723 569.699 146.856L621.155 213.16H618.467V149.032C618.467 145.448 620.259 143.656 623.843 143.656C627.427 143.656 629.219 145.448 629.219 149.032V225.064C629.219 228.648 627.427 230.44 623.843 230.44C621.923 230.44 620.131 229.373 618.467 227.24L567.011 160.936H569.699V225.064C569.699 228.648 567.907 230.44 564.323 230.44Z" stroke="#7A0019" stroke-width="2" mask="url(#path-2-outside-1_12_422)"/>
<path d="M681.422 230.44C671.651 230.44 664.419 228.115 659.726 223.464C655.075 218.771 652.75 211.539 652.75 201.768V172.328C652.75 162.472 655.075 155.219 659.726 150.568C664.377 145.875 671.566 143.571 681.294 143.656H696.782C704.803 143.656 710.926 145.32 715.15 148.648C719.374 151.933 721.827 157.139 722.51 164.264C722.766 166.056 722.425 167.421 721.486 168.36C720.547 169.299 719.182 169.768 717.39 169.768C714.147 169.768 712.27 167.976 711.758 164.392C711.331 160.467 709.966 157.821 707.662 156.456C705.401 155.091 701.774 154.408 696.782 154.408H681.294C676.771 154.365 673.209 154.877 670.606 155.944C668.046 157.011 666.211 158.867 665.102 161.512C664.035 164.115 663.502 167.72 663.502 172.328V201.768C663.502 206.333 664.035 209.917 665.102 212.52C666.211 215.123 668.067 216.979 670.67 218.088C673.273 219.155 676.857 219.688 681.422 219.688H696.782C700.75 219.688 703.843 219.261 706.062 218.408C708.323 217.512 709.902 215.955 710.798 213.736C711.694 211.517 712.142 208.381 712.142 204.328V198.312L702.158 198.184C698.574 198.184 696.782 196.392 696.782 192.808C696.782 189.224 698.574 187.432 702.158 187.432L717.518 187.56C721.102 187.56 722.894 189.352 722.894 192.936V204.328C722.894 213.416 720.782 220.051 716.558 224.232C712.334 228.371 705.742 230.44 696.782 230.44H681.422Z" stroke="#7A0019" stroke-width="2" mask="url(#path-2-outside-1_12_422)"/>
</g>
<g id="/">
<path d="M580.847 119.024C578.799 119.024 577.285 118.384 576.303 117.104C575.322 115.824 575.087 114.16 575.599 112.112L601.839 10.224C602.735 7.408 604.485 6 607.087 6C609.135 6 610.65 6.66133 611.631 7.984C612.655 9.264 612.847 10.9067 612.207 12.912L586.095 114.8C585.327 117.616 583.578 119.024 580.847 119.024Z" fill="black"/>
<path d="M575.115 111.987H575.115L575.114 111.991C574.578 114.137 574.805 115.972 575.907 117.408C577.007 118.844 578.69 119.524 580.847 119.524C582.301 119.524 583.539 119.147 584.521 118.358C585.499 117.57 586.174 116.411 586.578 114.932L586.578 114.932L586.58 114.924L612.688 13.05C613.356 10.9455 613.178 9.12198 612.028 7.6788C610.929 6.20306 609.247 5.5 607.087 5.5C605.691 5.5 604.487 5.87991 603.51 6.66649C602.538 7.44877 601.831 8.5999 601.363 10.0724L601.359 10.0857L601.355 10.0993L575.115 111.987Z" stroke="black"/>
</g>
<g id="SOCIAL">
<mask id="path-5-outside-2_12_422" maskUnits="userSpaceOnUse" x="77" y="11.6537" width="451" height="89" fill="black">
<rect fill="white" x="77" y="11.6537" width="451" height="89"/>
<path d="M102.743 99.44C95.4474 99.44 89.7514 97.968 85.6554 95.024C81.6021 92.08 79.0634 87.536 78.0394 81.392C77.8687 79.5147 78.2527 78.1067 79.1914 77.168C80.1301 76.2293 81.4954 75.76 83.2874 75.76C85.0794 75.76 86.3807 76.1867 87.1914 77.04C88.0447 77.8933 88.6207 79.216 88.9194 81.008C89.5594 83.952 90.9247 85.9787 93.0154 87.088C95.1487 88.1547 98.3914 88.688 102.743 88.688H121.175C126.679 88.688 130.413 87.7067 132.375 85.744C134.381 83.7387 135.383 80.0267 135.383 74.608C135.383 69.104 134.359 65.3493 132.311 63.344C130.263 61.296 126.551 60.272 121.175 60.272H105.303C97.2394 60.272 91.2447 58.3093 87.3194 54.384C83.4367 50.416 81.4954 44.4 81.4954 36.336C81.4954 28.3147 83.4154 22.3627 87.2554 18.48C91.1381 14.5973 97.1114 12.656 105.175 12.656H120.407C127.191 12.656 132.503 14.0427 136.343 16.816C140.226 19.5893 142.679 23.8347 143.703 29.552C143.959 31.3867 143.618 32.7947 142.679 33.776C141.741 34.7147 140.333 35.184 138.455 35.184C136.749 35.184 135.469 34.736 134.615 33.84C133.762 32.944 133.207 31.6427 132.951 29.936C132.269 27.4187 130.967 25.712 129.047 24.816C127.127 23.8773 124.247 23.408 120.407 23.408H105.175C100.055 23.408 96.6207 24.3253 94.8714 26.16C93.1221 27.952 92.2474 31.344 92.2474 36.336C92.2474 41.3707 93.1434 44.8267 94.9354 46.704C96.7274 48.5813 100.183 49.52 105.303 49.52H121.175C129.581 49.52 135.831 51.568 139.927 55.664C144.066 59.76 146.135 66.0747 146.135 74.608C146.135 83.0987 144.087 89.3707 139.991 93.424C135.895 97.4347 129.623 99.44 121.175 99.44H102.743Z"/>
<path d="M195.272 99.44C185.502 99.44 178.27 97.1147 173.576 92.464C168.926 87.7707 166.6 80.5387 166.6 70.768V41.2C166.6 31.344 168.947 24.112 173.64 19.504C178.334 14.8533 185.544 12.5707 195.272 12.656H210.632C220.446 12.656 227.678 14.9813 232.328 19.632C236.979 24.2827 239.304 31.5147 239.304 41.328V70.768C239.304 80.5387 236.979 87.7707 232.328 92.464C227.678 97.1147 220.446 99.44 210.632 99.44H195.272ZM195.272 88.688H210.632C215.198 88.688 218.782 88.1547 221.384 87.088C223.987 85.9787 225.822 84.1227 226.888 81.52C227.998 78.9173 228.552 75.3333 228.552 70.768V41.328C228.552 36.8053 227.998 33.2427 226.888 30.64C225.822 28.0373 223.987 26.1813 221.384 25.072C218.782 23.9627 215.198 23.408 210.632 23.408H195.272C190.75 23.3653 187.187 23.8773 184.584 24.944C181.982 26.0107 180.126 27.8453 179.016 30.448C177.907 33.0507 177.352 36.6347 177.352 41.2V70.768C177.352 75.3333 177.886 78.9173 178.952 81.52C180.062 84.1227 181.918 85.9787 184.52 87.088C187.123 88.1547 190.707 88.688 195.272 88.688Z"/>
<path d="M288.397 99.44C278.627 99.44 271.395 97.1147 266.701 92.464C262.051 87.7707 259.725 80.5387 259.725 70.768V41.328C259.725 31.472 262.051 24.2187 266.701 19.568C271.352 14.8747 278.541 12.5707 288.269 12.656H303.757C311.779 12.656 317.901 14.32 322.125 17.648C326.349 20.9333 328.803 26.1387 329.485 33.264C329.741 35.056 329.4 36.4213 328.461 37.36C327.523 38.2987 326.157 38.768 324.365 38.768C321.123 38.768 319.245 36.976 318.733 33.392C318.307 29.4667 316.941 26.8213 314.637 25.456C312.376 24.0907 308.749 23.408 303.757 23.408H288.269C283.747 23.3653 280.184 23.8773 277.581 24.944C275.021 26.0107 273.187 27.8667 272.077 30.512C271.011 33.1147 270.477 36.72 270.477 41.328V70.768C270.477 75.3333 271.011 78.9173 272.077 81.52C273.187 84.1227 275.043 85.9787 277.645 87.088C280.248 88.1547 283.832 88.688 288.397 88.688H303.757C308.749 88.688 312.376 88.0053 314.637 86.64C316.941 85.232 318.307 82.5867 318.733 78.704C319.245 75.12 321.123 73.328 324.365 73.328C326.157 73.328 327.523 73.7973 328.461 74.736C329.4 75.6747 329.741 77.04 329.485 78.832C328.803 86 326.349 91.2267 322.125 94.512C317.901 97.7973 311.779 99.44 303.757 99.44H288.397Z"/>
<path d="M357.298 99.44C355.464 99.44 354.098 99.0133 353.202 98.16C352.349 97.264 351.922 95.8987 351.922 94.064V18.16C351.922 16.2827 352.349 14.9173 353.202 14.064C354.098 13.2107 355.464 12.784 357.298 12.784C359.176 12.784 360.541 13.2107 361.394 14.064C362.248 14.9173 362.674 16.2827 362.674 18.16V94.064C362.674 95.8987 362.248 97.264 361.394 98.16C360.541 99.0133 359.176 99.44 357.298 99.44Z"/>
<path d="M385.201 98.928C381.788 97.6053 380.764 95.2587 382.129 91.888L412.593 16.88C413.873 14.064 415.879 12.656 418.609 12.656H418.865C421.639 12.784 423.516 14.192 424.497 16.88L455.473 91.888C456.839 95.2587 455.857 97.6053 452.529 98.928C449.159 100.251 446.812 99.2693 445.489 95.984L438.577 79.216H398.705L392.113 95.984C390.791 99.312 388.487 100.293 385.201 98.928ZM402.929 68.464H434.161L418.225 29.68L402.929 68.464Z"/>
<path d="M479.923 99.44C476.339 99.44 474.547 97.648 474.547 94.064V18.032C474.547 14.448 476.339 12.656 479.923 12.656C483.507 12.656 485.299 14.448 485.299 18.032V88.688H520.755C524.339 88.688 526.131 90.48 526.131 94.064C526.131 97.648 524.339 99.44 520.755 99.44H479.923Z"/>
</mask>
<path d="M102.743 99.44C95.4474 99.44 89.7514 97.968 85.6554 95.024C81.6021 92.08 79.0634 87.536 78.0394 81.392C77.8687 79.5147 78.2527 78.1067 79.1914 77.168C80.1301 76.2293 81.4954 75.76 83.2874 75.76C85.0794 75.76 86.3807 76.1867 87.1914 77.04C88.0447 77.8933 88.6207 79.216 88.9194 81.008C89.5594 83.952 90.9247 85.9787 93.0154 87.088C95.1487 88.1547 98.3914 88.688 102.743 88.688H121.175C126.679 88.688 130.413 87.7067 132.375 85.744C134.381 83.7387 135.383 80.0267 135.383 74.608C135.383 69.104 134.359 65.3493 132.311 63.344C130.263 61.296 126.551 60.272 121.175 60.272H105.303C97.2394 60.272 91.2447 58.3093 87.3194 54.384C83.4367 50.416 81.4954 44.4 81.4954 36.336C81.4954 28.3147 83.4154 22.3627 87.2554 18.48C91.1381 14.5973 97.1114 12.656 105.175 12.656H120.407C127.191 12.656 132.503 14.0427 136.343 16.816C140.226 19.5893 142.679 23.8347 143.703 29.552C143.959 31.3867 143.618 32.7947 142.679 33.776C141.741 34.7147 140.333 35.184 138.455 35.184C136.749 35.184 135.469 34.736 134.615 33.84C133.762 32.944 133.207 31.6427 132.951 29.936C132.269 27.4187 130.967 25.712 129.047 24.816C127.127 23.8773 124.247 23.408 120.407 23.408H105.175C100.055 23.408 96.6207 24.3253 94.8714 26.16C93.1221 27.952 92.2474 31.344 92.2474 36.336C92.2474 41.3707 93.1434 44.8267 94.9354 46.704C96.7274 48.5813 100.183 49.52 105.303 49.52H121.175C129.581 49.52 135.831 51.568 139.927 55.664C144.066 59.76 146.135 66.0747 146.135 74.608C146.135 83.0987 144.087 89.3707 139.991 93.424C135.895 97.4347 129.623 99.44 121.175 99.44H102.743Z" fill="#FFCC33"/>
<path d="M195.272 99.44C185.502 99.44 178.27 97.1147 173.576 92.464C168.926 87.7707 166.6 80.5387 166.6 70.768V41.2C166.6 31.344 168.947 24.112 173.64 19.504C178.334 14.8533 185.544 12.5707 195.272 12.656H210.632C220.446 12.656 227.678 14.9813 232.328 19.632C236.979 24.2827 239.304 31.5147 239.304 41.328V70.768C239.304 80.5387 236.979 87.7707 232.328 92.464C227.678 97.1147 220.446 99.44 210.632 99.44H195.272ZM195.272 88.688H210.632C215.198 88.688 218.782 88.1547 221.384 87.088C223.987 85.9787 225.822 84.1227 226.888 81.52C227.998 78.9173 228.552 75.3333 228.552 70.768V41.328C228.552 36.8053 227.998 33.2427 226.888 30.64C225.822 28.0373 223.987 26.1813 221.384 25.072C218.782 23.9627 215.198 23.408 210.632 23.408H195.272C190.75 23.3653 187.187 23.8773 184.584 24.944C181.982 26.0107 180.126 27.8453 179.016 30.448C177.907 33.0507 177.352 36.6347 177.352 41.2V70.768C177.352 75.3333 177.886 78.9173 178.952 81.52C180.062 84.1227 181.918 85.9787 184.52 87.088C187.123 88.1547 190.707 88.688 195.272 88.688Z" fill="#FFCC33"/>
<path d="M288.397 99.44C278.627 99.44 271.395 97.1147 266.701 92.464C262.051 87.7707 259.725 80.5387 259.725 70.768V41.328C259.725 31.472 262.051 24.2187 266.701 19.568C271.352 14.8747 278.541 12.5707 288.269 12.656H303.757C311.779 12.656 317.901 14.32 322.125 17.648C326.349 20.9333 328.803 26.1387 329.485 33.264C329.741 35.056 329.4 36.4213 328.461 37.36C327.523 38.2987 326.157 38.768 324.365 38.768C321.123 38.768 319.245 36.976 318.733 33.392C318.307 29.4667 316.941 26.8213 314.637 25.456C312.376 24.0907 308.749 23.408 303.757 23.408H288.269C283.747 23.3653 280.184 23.8773 277.581 24.944C275.021 26.0107 273.187 27.8667 272.077 30.512C271.011 33.1147 270.477 36.72 270.477 41.328V70.768C270.477 75.3333 271.011 78.9173 272.077 81.52C273.187 84.1227 275.043 85.9787 277.645 87.088C280.248 88.1547 283.832 88.688 288.397 88.688H303.757C308.749 88.688 312.376 88.0053 314.637 86.64C316.941 85.232 318.307 82.5867 318.733 78.704C319.245 75.12 321.123 73.328 324.365 73.328C326.157 73.328 327.523 73.7973 328.461 74.736C329.4 75.6747 329.741 77.04 329.485 78.832C328.803 86 326.349 91.2267 322.125 94.512C317.901 97.7973 311.779 99.44 303.757 99.44H288.397Z" fill="#FFCC33"/>
<path d="M357.298 99.44C355.464 99.44 354.098 99.0133 353.202 98.16C352.349 97.264 351.922 95.8987 351.922 94.064V18.16C351.922 16.2827 352.349 14.9173 353.202 14.064C354.098 13.2107 355.464 12.784 357.298 12.784C359.176 12.784 360.541 13.2107 361.394 14.064C362.248 14.9173 362.674 16.2827 362.674 18.16V94.064C362.674 95.8987 362.248 97.264 361.394 98.16C360.541 99.0133 359.176 99.44 357.298 99.44Z" fill="#FFCC33"/>
<path d="M385.201 98.928C381.788 97.6053 380.764 95.2587 382.129 91.888L412.593 16.88C413.873 14.064 415.879 12.656 418.609 12.656H418.865C421.639 12.784 423.516 14.192 424.497 16.88L455.473 91.888C456.839 95.2587 455.857 97.6053 452.529 98.928C449.159 100.251 446.812 99.2693 445.489 95.984L438.577 79.216H398.705L392.113 95.984C390.791 99.312 388.487 100.293 385.201 98.928ZM402.929 68.464H434.161L418.225 29.68L402.929 68.464Z" fill="#FFCC33"/>
<path d="M479.923 99.44C476.339 99.44 474.547 97.648 474.547 94.064V18.032C474.547 14.448 476.339 12.656 479.923 12.656C483.507 12.656 485.299 14.448 485.299 18.032V88.688H520.755C524.339 88.688 526.131 90.48 526.131 94.064C526.131 97.648 524.339 99.44 520.755 99.44H479.923Z" fill="#FFCC33"/>
<path d="M102.743 99.44C95.4474 99.44 89.7514 97.968 85.6554 95.024C81.6021 92.08 79.0634 87.536 78.0394 81.392C77.8687 79.5147 78.2527 78.1067 79.1914 77.168C80.1301 76.2293 81.4954 75.76 83.2874 75.76C85.0794 75.76 86.3807 76.1867 87.1914 77.04C88.0447 77.8933 88.6207 79.216 88.9194 81.008C89.5594 83.952 90.9247 85.9787 93.0154 87.088C95.1487 88.1547 98.3914 88.688 102.743 88.688H121.175C126.679 88.688 130.413 87.7067 132.375 85.744C134.381 83.7387 135.383 80.0267 135.383 74.608C135.383 69.104 134.359 65.3493 132.311 63.344C130.263 61.296 126.551 60.272 121.175 60.272H105.303C97.2394 60.272 91.2447 58.3093 87.3194 54.384C83.4367 50.416 81.4954 44.4 81.4954 36.336C81.4954 28.3147 83.4154 22.3627 87.2554 18.48C91.1381 14.5973 97.1114 12.656 105.175 12.656H120.407C127.191 12.656 132.503 14.0427 136.343 16.816C140.226 19.5893 142.679 23.8347 143.703 29.552C143.959 31.3867 143.618 32.7947 142.679 33.776C141.741 34.7147 140.333 35.184 138.455 35.184C136.749 35.184 135.469 34.736 134.615 33.84C133.762 32.944 133.207 31.6427 132.951 29.936C132.269 27.4187 130.967 25.712 129.047 24.816C127.127 23.8773 124.247 23.408 120.407 23.408H105.175C100.055 23.408 96.6207 24.3253 94.8714 26.16C93.1221 27.952 92.2474 31.344 92.2474 36.336C92.2474 41.3707 93.1434 44.8267 94.9354 46.704C96.7274 48.5813 100.183 49.52 105.303 49.52H121.175C129.581 49.52 135.831 51.568 139.927 55.664C144.066 59.76 146.135 66.0747 146.135 74.608C146.135 83.0987 144.087 89.3707 139.991 93.424C135.895 97.4347 129.623 99.44 121.175 99.44H102.743Z" stroke="#FFCC33" stroke-width="2" mask="url(#path-5-outside-2_12_422)"/>
<path d="M195.272 99.44C185.502 99.44 178.27 97.1147 173.576 92.464C168.926 87.7707 166.6 80.5387 166.6 70.768V41.2C166.6 31.344 168.947 24.112 173.64 19.504C178.334 14.8533 185.544 12.5707 195.272 12.656H210.632C220.446 12.656 227.678 14.9813 232.328 19.632C236.979 24.2827 239.304 31.5147 239.304 41.328V70.768C239.304 80.5387 236.979 87.7707 232.328 92.464C227.678 97.1147 220.446 99.44 210.632 99.44H195.272ZM195.272 88.688H210.632C215.198 88.688 218.782 88.1547 221.384 87.088C223.987 85.9787 225.822 84.1227 226.888 81.52C227.998 78.9173 228.552 75.3333 228.552 70.768V41.328C228.552 36.8053 227.998 33.2427 226.888 30.64C225.822 28.0373 223.987 26.1813 221.384 25.072C218.782 23.9627 215.198 23.408 210.632 23.408H195.272C190.75 23.3653 187.187 23.8773 184.584 24.944C181.982 26.0107 180.126 27.8453 179.016 30.448C177.907 33.0507 177.352 36.6347 177.352 41.2V70.768C177.352 75.3333 177.886 78.9173 178.952 81.52C180.062 84.1227 181.918 85.9787 184.52 87.088C187.123 88.1547 190.707 88.688 195.272 88.688Z" stroke="#FFCC33" stroke-width="2" mask="url(#path-5-outside-2_12_422)"/>
<path d="M288.397 99.44C278.627 99.44 271.395 97.1147 266.701 92.464C262.051 87.7707 259.725 80.5387 259.725 70.768V41.328C259.725 31.472 262.051 24.2187 266.701 19.568C271.352 14.8747 278.541 12.5707 288.269 12.656H303.757C311.779 12.656 317.901 14.32 322.125 17.648C326.349 20.9333 328.803 26.1387 329.485 33.264C329.741 35.056 329.4 36.4213 328.461 37.36C327.523 38.2987 326.157 38.768 324.365 38.768C321.123 38.768 319.245 36.976 318.733 33.392C318.307 29.4667 316.941 26.8213 314.637 25.456C312.376 24.0907 308.749 23.408 303.757 23.408H288.269C283.747 23.3653 280.184 23.8773 277.581 24.944C275.021 26.0107 273.187 27.8667 272.077 30.512C271.011 33.1147 270.477 36.72 270.477 41.328V70.768C270.477 75.3333 271.011 78.9173 272.077 81.52C273.187 84.1227 275.043 85.9787 277.645 87.088C280.248 88.1547 283.832 88.688 288.397 88.688H303.757C308.749 88.688 312.376 88.0053 314.637 86.64C316.941 85.232 318.307 82.5867 318.733 78.704C319.245 75.12 321.123 73.328 324.365 73.328C326.157 73.328 327.523 73.7973 328.461 74.736C329.4 75.6747 329.741 77.04 329.485 78.832C328.803 86 326.349 91.2267 322.125 94.512C317.901 97.7973 311.779 99.44 303.757 99.44H288.397Z" stroke="#FFCC33" stroke-width="2" mask="url(#path-5-outside-2_12_422)"/>
<path d="M357.298 99.44C355.464 99.44 354.098 99.0133 353.202 98.16C352.349 97.264 351.922 95.8987 351.922 94.064V18.16C351.922 16.2827 352.349 14.9173 353.202 14.064C354.098 13.2107 355.464 12.784 357.298 12.784C359.176 12.784 360.541 13.2107 361.394 14.064C362.248 14.9173 362.674 16.2827 362.674 18.16V94.064C362.674 95.8987 362.248 97.264 361.394 98.16C360.541 99.0133 359.176 99.44 357.298 99.44Z" stroke="#FFCC33" stroke-width="2" mask="url(#path-5-outside-2_12_422)"/>
<path d="M385.201 98.928C381.788 97.6053 380.764 95.2587 382.129 91.888L412.593 16.88C413.873 14.064 415.879 12.656 418.609 12.656H418.865C421.639 12.784 423.516 14.192 424.497 16.88L455.473 91.888C456.839 95.2587 455.857 97.6053 452.529 98.928C449.159 100.251 446.812 99.2693 445.489 95.984L438.577 79.216H398.705L392.113 95.984C390.791 99.312 388.487 100.293 385.201 98.928ZM402.929 68.464H434.161L418.225 29.68L402.929 68.464Z" stroke="#FFCC33" stroke-width="2" mask="url(#path-5-outside-2_12_422)"/>
<path d="M479.923 99.44C476.339 99.44 474.547 97.648 474.547 94.064V18.032C474.547 14.448 476.339 12.656 479.923 12.656C483.507 12.656 485.299 14.448 485.299 18.032V88.688H520.755C524.339 88.688 526.131 90.48 526.131 94.064C526.131 97.648 524.339 99.44 520.755 99.44H479.923Z" stroke="#FFCC33" stroke-width="2" mask="url(#path-5-outside-2_12_422)"/>
</g>
<g id="Bracket_2">
<path id="Vector_2" d="M61 6L6 117.5L60.9999 229" stroke="black" stroke-width="12" stroke-linecap="round" stroke-linejoin="round"/>
</g>
</g>
</svg>
