<svg width="328" height="123" viewBox="0 0 328 123" fill="none" xmlns="http://www.w3.org/2000/svg">
<g id="Compact">
<g id="Bracket">
<path id="Vector" d="M42 6L6 61.5L41.9999 117" stroke="white" stroke-width="12" stroke-linecap="round" stroke-linejoin="round"/>
</g>
<path id="C" d="M199.621 110.586L199.624 110.589C204.448 115.369 211.832 117.71 221.672 117.71H237.032C245.111 117.71 251.361 116.057 255.707 112.677C260.071 109.282 262.564 103.911 263.257 96.661C263.523 94.7795 263.174 93.2375 262.09 92.1525C261.028 91.091 259.517 90.5981 257.64 90.5981C255.924 90.5981 254.508 91.0749 253.455 92.0804C252.408 93.0794 251.779 94.5435 251.513 96.4034L251.512 96.4114L251.511 96.4195C251.093 100.22 249.772 102.687 247.652 103.983C245.511 105.275 242 105.958 237.032 105.958H221.672C217.138 105.958 213.629 105.427 211.113 104.397C208.631 103.338 206.872 101.578 205.813 99.0972C204.783 96.5808 204.252 93.072 204.252 88.5381V59.0981C204.252 54.5201 204.783 50.9898 205.814 48.4737C206.874 45.9464 208.614 44.1902 211.047 43.1762C213.562 42.1459 217.048 41.6357 221.539 41.6781V41.6781H221.544H237.032C242.001 41.6781 245.513 42.3618 247.653 43.6542L247.657 43.6563C249.77 44.9085 251.093 47.3698 251.511 51.2162L251.512 51.2245L251.513 51.2328C251.779 53.0928 252.408 54.5569 253.455 55.5558C254.508 56.5614 255.924 57.0381 257.64 57.0381C259.517 57.0381 261.028 56.5452 262.09 55.4837C263.175 54.3986 263.523 52.8566 263.257 50.975C262.564 43.7674 260.071 38.4183 255.708 35.0245C251.362 31.6008 245.112 29.9261 237.032 29.9261H221.546C211.749 29.8405 204.404 32.1597 199.622 36.9854C194.84 41.7677 192.5 49.1754 192.5 59.0981V88.5381C192.5 98.378 194.841 105.762 199.621 110.586Z" fill="white" stroke="white"/>
<path id="/" d="M144.011 109.987H144.011L144.01 109.991C143.473 112.137 143.701 113.972 144.802 115.408C145.903 116.844 147.585 117.524 149.743 117.524C151.197 117.524 152.435 117.147 153.416 116.357C154.395 115.57 155.07 114.411 155.473 112.932L155.473 112.932L155.475 112.924L168.531 61.9801L181.584 11.05C182.252 8.94554 182.073 7.12197 180.923 5.6788C179.824 4.20306 178.143 3.5 175.983 3.5C174.586 3.5 173.383 3.87991 172.405 4.66649C171.433 5.44877 170.727 6.59991 170.258 8.0724L170.254 8.08574L170.251 8.0993L157.131 59.0433L144.011 109.987Z" fill="white" stroke="white"/>
<g id="S">
<path d="M89.7434 91.2078C82.4474 91.2078 76.7514 89.7358 72.6554 86.7918C68.602 83.8478 66.0634 79.3038 65.0394 73.1598C64.8687 71.2825 65.2527 69.8745 66.1914 68.9358C67.1301 67.9972 68.4954 67.5278 70.2874 67.5278C72.0794 67.5278 73.3807 67.9545 74.1914 68.8078C75.0447 69.6612 75.6207 70.9838 75.9194 72.7758C76.5594 75.7198 77.9247 77.7465 80.0154 78.8558C82.1487 79.9225 85.3914 80.4558 89.7434 80.4558H108.175C113.679 80.4558 117.413 79.4745 119.375 77.5118C121.381 75.5065 122.383 71.7945 122.383 66.3758C122.383 60.8718 121.359 57.1172 119.311 55.1118C117.263 53.0638 113.551 52.0398 108.175 52.0398H92.3034C84.2394 52.0398 78.2447 50.0772 74.3194 46.1518C70.4367 42.1838 68.4954 36.1678 68.4954 28.1038C68.4954 20.0825 70.4154 14.1305 74.2554 10.2478C78.1381 6.36516 84.1114 4.42383 92.1754 4.42383H107.407C114.191 4.42383 119.503 5.8105 123.343 8.58383C127.226 11.3572 129.679 15.6025 130.703 21.3198C130.959 23.1545 130.618 24.5625 129.679 25.5438C128.741 26.4825 127.333 26.9518 125.455 26.9518C123.749 26.9518 122.469 26.5038 121.615 25.6078C120.762 24.7118 120.207 23.4105 119.951 21.7038C119.269 19.1865 117.967 17.4798 116.047 16.5838C114.127 15.6452 111.247 15.1758 107.407 15.1758H92.1754C87.0554 15.1758 83.6207 16.0932 81.8714 17.9278C80.1221 19.7198 79.2474 23.1118 79.2474 28.1038C79.2474 33.1385 80.1434 36.5945 81.9354 38.4718C83.7274 40.3492 87.1834 41.2878 92.3034 41.2878H108.175C116.581 41.2878 122.831 43.3358 126.927 47.4318C131.066 51.5278 133.135 57.8425 133.135 66.3758C133.135 74.8665 131.087 81.1385 126.991 85.1918C122.895 89.2025 116.623 91.2078 108.175 91.2078H89.7434Z" fill="white"/>
<path d="M89.7434 91.2078C82.4474 91.2078 76.7514 89.7358 72.6554 86.7918C68.602 83.8478 66.0634 79.3038 65.0394 73.1598C64.8687 71.2825 65.2527 69.8745 66.1914 68.9358C67.1301 67.9972 68.4954 67.5278 70.2874 67.5278C72.0794 67.5278 73.3807 67.9545 74.1914 68.8078C75.0447 69.6612 75.6207 70.9838 75.9194 72.7758C76.5594 75.7198 77.9247 77.7465 80.0154 78.8558C82.1487 79.9225 85.3914 80.4558 89.7434 80.4558H108.175C113.679 80.4558 117.413 79.4745 119.375 77.5118C121.381 75.5065 122.383 71.7945 122.383 66.3758C122.383 60.8718 121.359 57.1172 119.311 55.1118C117.263 53.0638 113.551 52.0398 108.175 52.0398H92.3034C84.2394 52.0398 78.2447 50.0772 74.3194 46.1518C70.4367 42.1838 68.4954 36.1678 68.4954 28.1038C68.4954 20.0825 70.4154 14.1305 74.2554 10.2478C78.1381 6.36516 84.1114 4.42383 92.1754 4.42383H107.407C114.191 4.42383 119.503 5.8105 123.343 8.58383C127.226 11.3572 129.679 15.6025 130.703 21.3198C130.959 23.1545 130.618 24.5625 129.679 25.5438C128.741 26.4825 127.333 26.9518 125.455 26.9518C123.749 26.9518 122.469 26.5038 121.615 25.6078C120.762 24.7118 120.207 23.4105 119.951 21.7038C119.269 19.1865 117.967 17.4798 116.047 16.5838C114.127 15.6452 111.247 15.1758 107.407 15.1758H92.1754C87.0554 15.1758 83.6207 16.0932 81.8714 17.9278C80.1221 19.7198 79.2474 23.1118 79.2474 28.1038C79.2474 33.1385 80.1434 36.5945 81.9354 38.4718C83.7274 40.3492 87.1834 41.2878 92.3034 41.2878H108.175C116.581 41.2878 122.831 43.3358 126.927 47.4318C131.066 51.5278 133.135 57.8425 133.135 66.3758C133.135 74.8665 131.087 81.1385 126.991 85.1918C122.895 89.2025 116.623 91.2078 108.175 91.2078H89.7434Z" fill="white"/>
<path d="M89.7434 91.2078C82.4474 91.2078 76.7514 89.7358 72.6554 86.7918C68.602 83.8478 66.0634 79.3038 65.0394 73.1598C64.8687 71.2825 65.2527 69.8745 66.1914 68.9358C67.1301 67.9972 68.4954 67.5278 70.2874 67.5278C72.0794 67.5278 73.3807 67.9545 74.1914 68.8078C75.0447 69.6612 75.6207 70.9838 75.9194 72.7758C76.5594 75.7198 77.9247 77.7465 80.0154 78.8558C82.1487 79.9225 85.3914 80.4558 89.7434 80.4558H108.175C113.679 80.4558 117.413 79.4745 119.375 77.5118C121.381 75.5065 122.383 71.7945 122.383 66.3758C122.383 60.8718 121.359 57.1172 119.311 55.1118C117.263 53.0638 113.551 52.0398 108.175 52.0398H92.3034C84.2394 52.0398 78.2447 50.0772 74.3194 46.1518C70.4367 42.1838 68.4954 36.1678 68.4954 28.1038C68.4954 20.0825 70.4154 14.1305 74.2554 10.2478C78.1381 6.36516 84.1114 4.42383 92.1754 4.42383H107.407C114.191 4.42383 119.503 5.8105 123.343 8.58383C127.226 11.3572 129.679 15.6025 130.703 21.3198C130.959 23.1545 130.618 24.5625 129.679 25.5438C128.741 26.4825 127.333 26.9518 125.455 26.9518C123.749 26.9518 122.469 26.5038 121.615 25.6078C120.762 24.7118 120.207 23.4105 119.951 21.7038C119.269 19.1865 117.967 17.4798 116.047 16.5838C114.127 15.6452 111.247 15.1758 107.407 15.1758H92.1754C87.0554 15.1758 83.6207 16.0932 81.8714 17.9278C80.1221 19.7198 79.2474 23.1118 79.2474 28.1038C79.2474 33.1385 80.1434 36.5945 81.9354 38.4718C83.7274 40.3492 87.1834 41.2878 92.3034 41.2878H108.175C116.581 41.2878 122.831 43.3358 126.927 47.4318C131.066 51.5278 133.135 57.8425 133.135 66.3758C133.135 74.8665 131.087 81.1385 126.991 85.1918C122.895 89.2025 116.623 91.2078 108.175 91.2078H89.7434Z" stroke="white"/>
</g>
<g id="Bracket_2">
<path id="Vector_2" d="M286 6L322 61.5L286 117" stroke="white" stroke-width="12" stroke-linecap="round" stroke-linejoin="round"/>
</g>
</g>
</svg>
