<svg width="815" height="237" viewBox="0 0 815 237" fill="none" xmlns="http://www.w3.org/2000/svg">
<g id="Full-Width">
<g id="Bracket">
<path id="Vector" d="M753.025 8L808.025 119.5L753.025 231" stroke="white" stroke-width="12" stroke-linecap="round" stroke-linejoin="round"/>
</g>
<g id="CODING">
<mask id="path-2-outside-1_12_439" maskUnits="userSpaceOnUse" x="243" y="142.654" width="481" height="89" fill="black">
<rect fill="white" x="243" y="142.654" width="481" height="89"/>
<path d="M272.672 230.44C262.901 230.44 255.669 228.115 250.976 223.464C246.325 218.771 244 211.539 244 201.768V172.328C244 162.472 246.325 155.219 250.976 150.568C255.627 145.875 262.816 143.571 272.544 143.656H288.032C296.053 143.656 302.176 145.32 306.4 148.648C310.624 151.933 313.077 157.139 313.76 164.264C314.016 166.056 313.675 167.421 312.736 168.36C311.797 169.299 310.432 169.768 308.64 169.768C305.397 169.768 303.52 167.976 303.008 164.392C302.581 160.467 301.216 157.821 298.912 156.456C296.651 155.091 293.024 154.408 288.032 154.408H272.544C268.021 154.365 264.459 154.877 261.856 155.944C259.296 157.011 257.461 158.867 256.352 161.512C255.285 164.115 254.752 167.72 254.752 172.328V201.768C254.752 206.333 255.285 209.917 256.352 212.52C257.461 215.123 259.317 216.979 261.92 218.088C264.523 219.155 268.107 219.688 272.672 219.688H288.032C293.024 219.688 296.651 219.005 298.912 217.64C301.216 216.232 302.581 213.587 303.008 209.704C303.52 206.12 305.397 204.328 308.64 204.328C310.432 204.328 311.797 204.797 312.736 205.736C313.675 206.675 314.016 208.04 313.76 209.832C313.077 217 310.624 222.227 306.4 225.512C302.176 228.797 296.053 230.44 288.032 230.44H272.672Z"/>
<path d="M361.797 230.44C352.026 230.44 344.794 228.115 340.101 223.464C335.45 218.771 333.125 211.539 333.125 201.768V172.2C333.125 162.344 335.472 155.112 340.165 150.504C344.858 145.853 352.069 143.571 361.797 143.656H377.157C386.97 143.656 394.202 145.981 398.853 150.632C403.504 155.283 405.829 162.515 405.829 172.328V201.768C405.829 211.539 403.504 218.771 398.853 223.464C394.202 228.115 386.97 230.44 377.157 230.44H361.797ZM361.797 219.688H377.157C381.722 219.688 385.306 219.155 387.909 218.088C390.512 216.979 392.346 215.123 393.413 212.52C394.522 209.917 395.077 206.333 395.077 201.768V172.328C395.077 167.805 394.522 164.243 393.413 161.64C392.346 159.037 390.512 157.181 387.909 156.072C385.306 154.963 381.722 154.408 377.157 154.408H361.797C357.274 154.365 353.712 154.877 351.109 155.944C348.506 157.011 346.65 158.845 345.541 161.448C344.432 164.051 343.877 167.635 343.877 172.2V201.768C343.877 206.333 344.41 209.917 345.477 212.52C346.586 215.123 348.442 216.979 351.045 218.088C353.648 219.155 357.232 219.688 361.797 219.688Z"/>
<path d="M434.698 230.44C431.114 230.44 429.322 228.648 429.322 225.064V149.032C429.322 145.448 431.114 143.656 434.698 143.656H465.546C476.682 143.656 484.874 146.301 490.122 151.592C495.413 156.84 498.058 165.032 498.058 176.168V197.928C498.058 209.064 495.434 217.277 490.186 222.568C484.981 227.816 476.767 230.44 465.546 230.44H434.698ZM440.074 219.688H465.546C471.007 219.688 475.317 219.027 478.474 217.704C481.674 216.339 483.935 214.077 485.258 210.92C486.623 207.72 487.306 203.389 487.306 197.928V176.168C487.306 170.749 486.623 166.461 485.258 163.304C483.935 160.104 481.674 157.821 478.474 156.456C475.317 155.091 471.007 154.408 465.546 154.408H440.074V219.688Z"/>
<path d="M526.948 230.44C525.113 230.44 523.748 230.013 522.852 229.16C521.999 228.264 521.572 226.899 521.572 225.064V149.16C521.572 147.283 521.999 145.917 522.852 145.064C523.748 144.211 525.113 143.784 526.948 143.784C528.825 143.784 530.191 144.211 531.044 145.064C531.897 145.917 532.324 147.283 532.324 149.16V225.064C532.324 226.899 531.897 228.264 531.044 229.16C530.191 230.013 528.825 230.44 526.948 230.44Z"/>
<path d="M564.323 230.44C560.739 230.44 558.947 228.648 558.947 225.064V149.032C558.947 145.448 560.739 143.656 564.323 143.656C566.158 143.656 567.95 144.723 569.699 146.856L621.155 213.16H618.467V149.032C618.467 145.448 620.259 143.656 623.843 143.656C627.427 143.656 629.219 145.448 629.219 149.032V225.064C629.219 228.648 627.427 230.44 623.843 230.44C621.923 230.44 620.131 229.373 618.467 227.24L567.011 160.936H569.699V225.064C569.699 228.648 567.907 230.44 564.323 230.44Z"/>
<path d="M681.422 230.44C671.651 230.44 664.419 228.115 659.726 223.464C655.075 218.771 652.75 211.539 652.75 201.768V172.328C652.75 162.472 655.075 155.219 659.726 150.568C664.377 145.875 671.566 143.571 681.294 143.656H696.782C704.803 143.656 710.926 145.32 715.15 148.648C719.374 151.933 721.827 157.139 722.51 164.264C722.766 166.056 722.425 167.421 721.486 168.36C720.547 169.299 719.182 169.768 717.39 169.768C714.147 169.768 712.27 167.976 711.758 164.392C711.331 160.467 709.966 157.821 707.662 156.456C705.401 155.091 701.774 154.408 696.782 154.408H681.294C676.771 154.365 673.209 154.877 670.606 155.944C668.046 157.011 666.211 158.867 665.102 161.512C664.035 164.115 663.502 167.72 663.502 172.328V201.768C663.502 206.333 664.035 209.917 665.102 212.52C666.211 215.123 668.067 216.979 670.67 218.088C673.273 219.155 676.857 219.688 681.422 219.688H696.782C700.75 219.688 703.843 219.261 706.062 218.408C708.323 217.512 709.902 215.955 710.798 213.736C711.694 211.517 712.142 208.381 712.142 204.328V198.312L702.158 198.184C698.574 198.184 696.782 196.392 696.782 192.808C696.782 189.224 698.574 187.432 702.158 187.432L717.518 187.56C721.102 187.56 722.894 189.352 722.894 192.936V204.328C722.894 213.416 720.782 220.051 716.558 224.232C712.334 228.371 705.742 230.44 696.782 230.44H681.422Z"/>
</mask>
<path d="M272.672 230.44C262.901 230.44 255.669 228.115 250.976 223.464C246.325 218.771 244 211.539 244 201.768V172.328C244 162.472 246.325 155.219 250.976 150.568C255.627 145.875 262.816 143.571 272.544 143.656H288.032C296.053 143.656 302.176 145.32 306.4 148.648C310.624 151.933 313.077 157.139 313.76 164.264C314.016 166.056 313.675 167.421 312.736 168.36C311.797 169.299 310.432 169.768 308.64 169.768C305.397 169.768 303.52 167.976 303.008 164.392C302.581 160.467 301.216 157.821 298.912 156.456C296.651 155.091 293.024 154.408 288.032 154.408H272.544C268.021 154.365 264.459 154.877 261.856 155.944C259.296 157.011 257.461 158.867 256.352 161.512C255.285 164.115 254.752 167.72 254.752 172.328V201.768C254.752 206.333 255.285 209.917 256.352 212.52C257.461 215.123 259.317 216.979 261.92 218.088C264.523 219.155 268.107 219.688 272.672 219.688H288.032C293.024 219.688 296.651 219.005 298.912 217.64C301.216 216.232 302.581 213.587 303.008 209.704C303.52 206.12 305.397 204.328 308.64 204.328C310.432 204.328 311.797 204.797 312.736 205.736C313.675 206.675 314.016 208.04 313.76 209.832C313.077 217 310.624 222.227 306.4 225.512C302.176 228.797 296.053 230.44 288.032 230.44H272.672Z" fill="white"/>
<path d="M361.797 230.44C352.026 230.44 344.794 228.115 340.101 223.464C335.45 218.771 333.125 211.539 333.125 201.768V172.2C333.125 162.344 335.472 155.112 340.165 150.504C344.858 145.853 352.069 143.571 361.797 143.656H377.157C386.97 143.656 394.202 145.981 398.853 150.632C403.504 155.283 405.829 162.515 405.829 172.328V201.768C405.829 211.539 403.504 218.771 398.853 223.464C394.202 228.115 386.97 230.44 377.157 230.44H361.797ZM361.797 219.688H377.157C381.722 219.688 385.306 219.155 387.909 218.088C390.512 216.979 392.346 215.123 393.413 212.52C394.522 209.917 395.077 206.333 395.077 201.768V172.328C395.077 167.805 394.522 164.243 393.413 161.64C392.346 159.037 390.512 157.181 387.909 156.072C385.306 154.963 381.722 154.408 377.157 154.408H361.797C357.274 154.365 353.712 154.877 351.109 155.944C348.506 157.011 346.65 158.845 345.541 161.448C344.432 164.051 343.877 167.635 343.877 172.2V201.768C343.877 206.333 344.41 209.917 345.477 212.52C346.586 215.123 348.442 216.979 351.045 218.088C353.648 219.155 357.232 219.688 361.797 219.688Z" fill="white"/>
<path d="M434.698 230.44C431.114 230.44 429.322 228.648 429.322 225.064V149.032C429.322 145.448 431.114 143.656 434.698 143.656H465.546C476.682 143.656 484.874 146.301 490.122 151.592C495.413 156.84 498.058 165.032 498.058 176.168V197.928C498.058 209.064 495.434 217.277 490.186 222.568C484.981 227.816 476.767 230.44 465.546 230.44H434.698ZM440.074 219.688H465.546C471.007 219.688 475.317 219.027 478.474 217.704C481.674 216.339 483.935 214.077 485.258 210.92C486.623 207.72 487.306 203.389 487.306 197.928V176.168C487.306 170.749 486.623 166.461 485.258 163.304C483.935 160.104 481.674 157.821 478.474 156.456C475.317 155.091 471.007 154.408 465.546 154.408H440.074V219.688Z" fill="white"/>
<path d="M526.948 230.44C525.113 230.44 523.748 230.013 522.852 229.16C521.999 228.264 521.572 226.899 521.572 225.064V149.16C521.572 147.283 521.999 145.917 522.852 145.064C523.748 144.211 525.113 143.784 526.948 143.784C528.825 143.784 530.191 144.211 531.044 145.064C531.897 145.917 532.324 147.283 532.324 149.16V225.064C532.324 226.899 531.897 228.264 531.044 229.16C530.191 230.013 528.825 230.44 526.948 230.44Z" fill="white"/>
<path d="M564.323 230.44C560.739 230.44 558.947 228.648 558.947 225.064V149.032C558.947 145.448 560.739 143.656 564.323 143.656C566.158 143.656 567.95 144.723 569.699 146.856L621.155 213.16H618.467V149.032C618.467 145.448 620.259 143.656 623.843 143.656C627.427 143.656 629.219 145.448 629.219 149.032V225.064C629.219 228.648 627.427 230.44 623.843 230.44C621.923 230.44 620.131 229.373 618.467 227.24L567.011 160.936H569.699V225.064C569.699 228.648 567.907 230.44 564.323 230.44Z" fill="white"/>
<path d="M681.422 230.44C671.651 230.44 664.419 228.115 659.726 223.464C655.075 218.771 652.75 211.539 652.75 201.768V172.328C652.75 162.472 655.075 155.219 659.726 150.568C664.377 145.875 671.566 143.571 681.294 143.656H696.782C704.803 143.656 710.926 145.32 715.15 148.648C719.374 151.933 721.827 157.139 722.51 164.264C722.766 166.056 722.425 167.421 721.486 168.36C720.547 169.299 719.182 169.768 717.39 169.768C714.147 169.768 712.27 167.976 711.758 164.392C711.331 160.467 709.966 157.821 707.662 156.456C705.401 155.091 701.774 154.408 696.782 154.408H681.294C676.771 154.365 673.209 154.877 670.606 155.944C668.046 157.011 666.211 158.867 665.102 161.512C664.035 164.115 663.502 167.72 663.502 172.328V201.768C663.502 206.333 664.035 209.917 665.102 212.52C666.211 215.123 668.067 216.979 670.67 218.088C673.273 219.155 676.857 219.688 681.422 219.688H696.782C700.75 219.688 703.843 219.261 706.062 218.408C708.323 217.512 709.902 215.955 710.798 213.736C711.694 211.517 712.142 208.381 712.142 204.328V198.312L702.158 198.184C698.574 198.184 696.782 196.392 696.782 192.808C696.782 189.224 698.574 187.432 702.158 187.432L717.518 187.56C721.102 187.56 722.894 189.352 722.894 192.936V204.328C722.894 213.416 720.782 220.051 716.558 224.232C712.334 228.371 705.742 230.44 696.782 230.44H681.422Z" fill="white"/>
<path d="M272.672 230.44C262.901 230.44 255.669 228.115 250.976 223.464C246.325 218.771 244 211.539 244 201.768V172.328C244 162.472 246.325 155.219 250.976 150.568C255.627 145.875 262.816 143.571 272.544 143.656H288.032C296.053 143.656 302.176 145.32 306.4 148.648C310.624 151.933 313.077 157.139 313.76 164.264C314.016 166.056 313.675 167.421 312.736 168.36C311.797 169.299 310.432 169.768 308.64 169.768C305.397 169.768 303.52 167.976 303.008 164.392C302.581 160.467 301.216 157.821 298.912 156.456C296.651 155.091 293.024 154.408 288.032 154.408H272.544C268.021 154.365 264.459 154.877 261.856 155.944C259.296 157.011 257.461 158.867 256.352 161.512C255.285 164.115 254.752 167.72 254.752 172.328V201.768C254.752 206.333 255.285 209.917 256.352 212.52C257.461 215.123 259.317 216.979 261.92 218.088C264.523 219.155 268.107 219.688 272.672 219.688H288.032C293.024 219.688 296.651 219.005 298.912 217.64C301.216 216.232 302.581 213.587 303.008 209.704C303.52 206.12 305.397 204.328 308.64 204.328C310.432 204.328 311.797 204.797 312.736 205.736C313.675 206.675 314.016 208.04 313.76 209.832C313.077 217 310.624 222.227 306.4 225.512C302.176 228.797 296.053 230.44 288.032 230.44H272.672Z" stroke="white" stroke-width="2" mask="url(#path-2-outside-1_12_439)"/>
<path d="M361.797 230.44C352.026 230.44 344.794 228.115 340.101 223.464C335.45 218.771 333.125 211.539 333.125 201.768V172.2C333.125 162.344 335.472 155.112 340.165 150.504C344.858 145.853 352.069 143.571 361.797 143.656H377.157C386.97 143.656 394.202 145.981 398.853 150.632C403.504 155.283 405.829 162.515 405.829 172.328V201.768C405.829 211.539 403.504 218.771 398.853 223.464C394.202 228.115 386.97 230.44 377.157 230.44H361.797ZM361.797 219.688H377.157C381.722 219.688 385.306 219.155 387.909 218.088C390.512 216.979 392.346 215.123 393.413 212.52C394.522 209.917 395.077 206.333 395.077 201.768V172.328C395.077 167.805 394.522 164.243 393.413 161.64C392.346 159.037 390.512 157.181 387.909 156.072C385.306 154.963 381.722 154.408 377.157 154.408H361.797C357.274 154.365 353.712 154.877 351.109 155.944C348.506 157.011 346.65 158.845 345.541 161.448C344.432 164.051 343.877 167.635 343.877 172.2V201.768C343.877 206.333 344.41 209.917 345.477 212.52C346.586 215.123 348.442 216.979 351.045 218.088C353.648 219.155 357.232 219.688 361.797 219.688Z" stroke="white" stroke-width="2" mask="url(#path-2-outside-1_12_439)"/>
<path d="M434.698 230.44C431.114 230.44 429.322 228.648 429.322 225.064V149.032C429.322 145.448 431.114 143.656 434.698 143.656H465.546C476.682 143.656 484.874 146.301 490.122 151.592C495.413 156.84 498.058 165.032 498.058 176.168V197.928C498.058 209.064 495.434 217.277 490.186 222.568C484.981 227.816 476.767 230.44 465.546 230.44H434.698ZM440.074 219.688H465.546C471.007 219.688 475.317 219.027 478.474 217.704C481.674 216.339 483.935 214.077 485.258 210.92C486.623 207.72 487.306 203.389 487.306 197.928V176.168C487.306 170.749 486.623 166.461 485.258 163.304C483.935 160.104 481.674 157.821 478.474 156.456C475.317 155.091 471.007 154.408 465.546 154.408H440.074V219.688Z" stroke="white" stroke-width="2" mask="url(#path-2-outside-1_12_439)"/>
<path d="M526.948 230.44C525.113 230.44 523.748 230.013 522.852 229.16C521.999 228.264 521.572 226.899 521.572 225.064V149.16C521.572 147.283 521.999 145.917 522.852 145.064C523.748 144.211 525.113 143.784 526.948 143.784C528.825 143.784 530.191 144.211 531.044 145.064C531.897 145.917 532.324 147.283 532.324 149.16V225.064C532.324 226.899 531.897 228.264 531.044 229.16C530.191 230.013 528.825 230.44 526.948 230.44Z" stroke="white" stroke-width="2" mask="url(#path-2-outside-1_12_439)"/>
<path d="M564.323 230.44C560.739 230.44 558.947 228.648 558.947 225.064V149.032C558.947 145.448 560.739 143.656 564.323 143.656C566.158 143.656 567.95 144.723 569.699 146.856L621.155 213.16H618.467V149.032C618.467 145.448 620.259 143.656 623.843 143.656C627.427 143.656 629.219 145.448 629.219 149.032V225.064C629.219 228.648 627.427 230.44 623.843 230.44C621.923 230.44 620.131 229.373 618.467 227.24L567.011 160.936H569.699V225.064C569.699 228.648 567.907 230.44 564.323 230.44Z" stroke="white" stroke-width="2" mask="url(#path-2-outside-1_12_439)"/>
<path d="M681.422 230.44C671.651 230.44 664.419 228.115 659.726 223.464C655.075 218.771 652.75 211.539 652.75 201.768V172.328C652.75 162.472 655.075 155.219 659.726 150.568C664.377 145.875 671.566 143.571 681.294 143.656H696.782C704.803 143.656 710.926 145.32 715.15 148.648C719.374 151.933 721.827 157.139 722.51 164.264C722.766 166.056 722.425 167.421 721.486 168.36C720.547 169.299 719.182 169.768 717.39 169.768C714.147 169.768 712.27 167.976 711.758 164.392C711.331 160.467 709.966 157.821 707.662 156.456C705.401 155.091 701.774 154.408 696.782 154.408H681.294C676.771 154.365 673.209 154.877 670.606 155.944C668.046 157.011 666.211 158.867 665.102 161.512C664.035 164.115 663.502 167.72 663.502 172.328V201.768C663.502 206.333 664.035 209.917 665.102 212.52C666.211 215.123 668.067 216.979 670.67 218.088C673.273 219.155 676.857 219.688 681.422 219.688H696.782C700.75 219.688 703.843 219.261 706.062 218.408C708.323 217.512 709.902 215.955 710.798 213.736C711.694 211.517 712.142 208.381 712.142 204.328V198.312L702.158 198.184C698.574 198.184 696.782 196.392 696.782 192.808C696.782 189.224 698.574 187.432 702.158 187.432L717.518 187.56C721.102 187.56 722.894 189.352 722.894 192.936V204.328C722.894 213.416 720.782 220.051 716.558 224.232C712.334 228.371 705.742 230.44 696.782 230.44H681.422Z" stroke="white" stroke-width="2" mask="url(#path-2-outside-1_12_439)"/>
</g>
<g id="/">
<path d="M580.847 119.024C578.799 119.024 577.285 118.384 576.303 117.104C575.322 115.824 575.087 114.16 575.599 112.112L601.839 10.224C602.735 7.408 604.485 6 607.087 6C609.135 6 610.65 6.66133 611.631 7.984C612.655 9.264 612.847 10.9067 612.207 12.912L586.095 114.8C585.327 117.616 583.578 119.024 580.847 119.024Z" fill="white"/>
<path d="M575.115 111.987H575.115L575.114 111.991C574.578 114.137 574.805 115.972 575.906 117.408C577.007 118.844 578.69 119.524 580.847 119.524C582.301 119.524 583.539 119.147 584.521 118.358C585.499 117.57 586.174 116.411 586.578 114.932L586.578 114.932L586.58 114.924L612.688 13.05C613.356 10.9455 613.178 9.12198 612.027 7.6788C610.929 6.20306 609.247 5.5 607.087 5.5C605.691 5.5 604.487 5.87991 603.51 6.66649C602.538 7.44877 601.831 8.5999 601.363 10.0724L601.359 10.0857L601.355 10.0993L575.115 111.987Z" stroke="white"/>
</g>
<g id="SOCIAL">
</g>
<g id="Bracket_2">
<path id="Vector_2" d="M61 6L6 117.5L60.9999 229" stroke="white" stroke-width="12" stroke-linecap="round" stroke-linejoin="round"/>
</g>
</g>
</svg>
